<svg xmlns="http://www.w3.org/2000/svg" xmlns:xlink="http://www.w3.org/1999/xlink" x="0px" y="0px"
	 viewBox="2238.5 -139.3 524.3 1071.2" style="enable-background:new 2238.5 -139.3 524.3 1071.2;" xml:space="preserve">
<path d="M2383.8,15.6c-0.1-1.9,0.1-3.9-0.9-5.7c-1.3-9.7-1.4-19.4-1.7-29.2c-1.8-2.5-3-5.4-4.9-7.8c-2.1-3-2.2-6.6-2.3-10.2
	c-1.8-1.3-3.6-2.6-5.3-4c-1.2-6.5-1.8-13.2-3-19.8c-0.6,0.5-1.8,1.4-2.4,1.9c-0.2-5.9-0.2-11.9-1.5-17.6c-0.3-6.9-1.2-13.8-1.1-20.7
	c-0.6-0.1-1.8-0.4-2.4-0.6c-0.2,3.8,0.3,7.6-0.8,11.3c-0.8,6.4-1.2,12.9-1.9,19.3c-0.4,0.4-1.1,1.2-1.4,1.6
	c-0.4,0.9-0.9,1.8-1.4,2.7c0,3.6-0.4,7.2-1.1,10.7c-1-5.4-0.1-10.9-0.6-16.4c-1.3-8.5-3.5-16.9-4.4-25.5c-0.8-0.3-1.7-0.6-2.5-0.9
	c0.1,0.6,0.4,1.9,0.6,2.5c-0.6,1.4-1,2.9-1.3,4.4c-0.6,4.4-1.1,8.7-1.4,13.1c-0.4,0.6-1.4,1.8-1.8,2.4c0.2-7.3-0.7-14.6-0.6-21.9
	c-1.2-3.5-0.9-7.2-1-10.9c-0.9-11.2-0.7-22.4-1.5-33.6c-0.6,0-1.8,0-2.4,0c-1.1,7.8-1.7,15.7-2.4,23.4c-1.8,5.8-0.8,12.1-2.4,17.9
	c-1.2,4.1-1.1,8.5-1.5,12.7c-1.5,0.9-3,1.8-4.6,2.6c-0.3,0.7-0.7,1.5-1,2.2c-1.9,5.7-3.8,11.3-5.7,17c-0.3-1.6-0.6-3.2-0.9-4.8
	c-0.4,0.2-1.3,0.6-1.8,0.8c-3.4,6.7-10.6,10.2-18.1,12.5c-7.2,1.9-11.6,8.3-16.9,12.9c-4.4,3.7-8.1,8-12.6,11.6
	c-2.2,2.2-4.5,4.4-7,6.4c-1.4,3.8-3.7,7.2-5.2,10.9c-1.6,3.9-4.4,7.1-5.9,11c-2.4,1.7-4.7,3.3-6.9,5.1c0.4,3.9,1.2,7.9,0.1,11.8
	c-1.6,2.3-0.7,5.2-1,7.8c-0.6,5.3,0.1,10.9-2.5,15.8c4.1,2.3,1.5,6.8,1.7,10.4c1.1,4.6,0.8,9.4,0.8,14.1c1.6,2.7,3.5,5.2,4.7,8.1
	c0.3,0.3,1,0.8,1.3,1.1c0.8,7,0.7,14,1.2,21l1-0.4c-0.1,3.6-0.2,7.2,0.3,10.8c0.4,4.7-0.2,9.6,1.2,14.2c0.9,2.9,1,6,1.3,9
	c0.5-0.2,1.5-0.5,2-0.7c0.8-10-0.8-20.3,1.3-30.2c0.1,5.8-0.3,11.7,0,17.6c0.3,3.8,1,7.7,0.8,11.6c0.5,12.3,0,24.6,0.3,36.9
	c2.3,6.1,4.1,12.5,6.7,18.5c0.5,1.7,1.1,3.4,1.5,5.1c1.4,4,3.4,7.8,4.2,12c0.2,7.4,0.1,14.7,0.1,22.1c0.1,1.9-0.7,3.8-1.8,5.3
	c-3.3,6.7-1.2,14.5-1.2,21.6c-0.3,5.8,0.6,11.6,0.6,17.4c1,4.8-0.1,9.7,0.7,14.5c1.4,4.4,0.3,9,0.9,13.5c0.7,5.8-0.1,11.7,0.7,17.5
	c1.6,35.8,2.7,71.5,4.3,107.3c1.8,5.1,6.3,9.3,6.6,15c0.9,14.9,1.4,29.9,2.1,44.8c1.1,17.4,0.4,34.7,0.6,52.1
	c0.2,3.5-0.6,7.2,0.7,10.6c2.7,7.1,4.4,14.6,7,21.8c1.1,2.7,1.8,5.6,1.7,8.5c0,16.7-0.1,33.4,0,50.2c1.2,4.4,2,9,3.3,13.4
	c0.8,4.7,1.6,9.5,2.1,14.3c0.2,22-0.1,43.9,0.2,65.9c1.3,9.3,0.9,18.8,2.4,28.1c0.5,12,1.3,23.9,1.6,35.9c1.4,5.1,0.9,10.6,1.8,15.8
	c0.1,6.1,0.6,12.2,0.8,18.3c1.2,3.7,0.9,7.7,0.8,11.6c0.8-0.1,1.7-0.1,2.6-0.1c0.1-9.8-0.5-19.7,0.4-29.5c0-5.6-0.3-11.3,0.6-16.9
	c0-11.2,2-22.4,0.7-33.6c0.7,2.1,1.3,4.2,1.2,6.5c0,35.1,0,70.2,0,105.3c1.9,4,3.6,8.2,4.4,12.6c0.2,4.7,0.6,9.4,0.8,14.2
	c2.3,7.7,1,15.8,2.7,23.6c0.7,8.9,1.3,17.7,1.4,26.6c0.6,0.1,1.7,0.2,2.3,0.3c-0.2-5.1,0.5-10,1.5-15c0.2-7.9,1.2-15.8,1.2-23.8
	c1.4-2,0.8-4.5,1-6.8c0.4-6,0.7-12,1-18c2.4-10.7,1.6-21.8,2.8-32.6c1.2-14.5,0.5-28.9,0.7-43.4c0.1-6.5-0.7-13.2,1.5-19.4
	c1.8-4.3,1.7-9.2,3.3-13.6c0.2-6.4,0.2-12.8,0-19.1c-1.5-5.6-1.8-11.3-3.3-16.9c-0.3-5-0.2-10,0.3-15c0.3-7.1-0.2-14.3,0.3-21.5
	c0.2-4.7,2.1-9.2,3.6-13.6c2.4-5.5,3.9-11.4,6.1-16.9c0.3-42.7,0-85.4,0.1-128.1c0-5,2.3-9.6,2.7-14.6c1.6,0.7,3.2,1.3,4.8,1.9
	c0,9.9,0,19.9,0,29.8c1,14.3,0.3,28.7,0.5,43c0.2,13.9-0.6,27.7,0.7,41.5c1,10.1-0.3,20.3,0.7,30.4c3.2-7.9,1.7-16.7,2.7-25
	c2.8-14.8,1.5-30.1,3.9-44.9c0.1-8,1.3-16,1.6-24c1.6-9.9,0.9-20,1.9-30c0.3-3.1-0.6-6.4,0.9-9.2c0.4-14,1.4-27.9,2.4-41.8
	c2.7-50.3,5.5-100.7,8.2-151c0.2-27.3,0-54.7,0.1-82.1c0.6-6.3-2.4-12-3.1-18.1c-0.3-3.7-2.7-7-2.4-10.8c0.1-27.7,0-55.3,0.1-83
	c1-5.5,1.7-11.2,3.5-16.6c-0.2,2.5-1,5-1.4,7.5c0.1,2.4,0.9,4.7,0.8,7.1c0,24.6,0,49.2,0,73.9c0.7,0.3,1.4,0.6,2.1,0.9
	c2-14.9,2.7-29.9,3-44.9c1.2-4.3,1-8.7,1-13c1-11.1,1.3-22.1,1.7-33.2c1.5-6,0.3-12.1,1.2-18.1c0.1-8.3,0.9-16.7-1.2-24.8
	c1.2-5,1.5-10.2,2.9-15.1c1.4-5.5,0.8-11.3,0.9-16.9c-0.3-8.1,0.8-16.3-0.9-24.2c-0.3-2.6,1-5,1.6-7.4L2383.8,15.6z M2346.3,508.3
	c1.5-4.9,0.5-10.1,0.8-15.1c-0.2-3.4,0.7-7.1-0.6-10.4c1,1,2.1,2,3.1,2.9c0.1,8.1-0.3,16.2,0.2,24.3
	C2348.9,508.9,2347.6,508.6,2346.3,508.3z"/>
<path d="M2761.5-7.1c0.4-5.7-3.2-10.5-5.2-15.6c-2.3-4.5-4.8-9-6.6-13.8c-3.7-3.2-7.9-6.1-11.6-9.4c0.1-0.3,0.2-0.6,0.3-0.7
	c-1-3.4-3.7-5.7-6.5-7.6c-0.2-1.9-0.6-3.8-0.9-5.7c-1.6-4.4-2.3-9.1-3.1-13.8c-0.9,0.6-1.8,1.1-2.6,1.8c-1,3.8-1.5,7.6-2.1,11.4
	c-2-0.3-4.2-0.6-6.2-0.9c-5.5-3.4-11.7-5.9-17.3-9.4c-1.8,0.4-3.6,0.6-5.4,0.8c-0.1,0.5-0.5,1.4-0.7,1.8c-2.4-3.5-3.8-7.5-6-11
	c0.4-4.8-1.4-9.6-1.3-14.4c-0.7-4.2-0.3-8.4-0.6-12.6c-1.1,0.7-2.9,1.3-2.6,3.1c0,8.7-0.3,17.4-1.2,26.1c-0.1-1.8-0.1-3.6,0-5.4
	c-0.8-0.7-2.5-2-3.3-2.7c0,4.2,0.1,8.3-0.1,12.5c-0.6,2.8-0.5,5.5-0.6,8.3c-0.6,0.5-1.5,1.3-1.9,1.7c-1.5-7.4-2.2-15.1-5.5-22.1
	c-1.9-4.5-1.1-9.5-1.7-14.2c-2.2-8.1-1.4-16.5-2.4-24.7c-1.4-5.1-0.7-10.4-0.8-15.7c-0.8,0.2-2.2,0.6-2.9,0.8
	c0.5,12.9-1.1,25.8-1.6,38.6c-1.9,9.5-1.5,19.2-2.1,28.9c-1.9,2.4-4,4.9-5.6,7.6c-1.9,5.6-1.1,11.8-2.9,17.3
	c-4.7,5.5-9.3,11-13.9,16.5c-2,2.7-0.8,6.2-1.8,9.2c-1.4,4.2-1,8.4-1.7,12.7c-0.6,5.1-2.7,9.8-4.5,14.5c-0.8,3.1-1.3,6.4-2.8,9.3
	c0.3,0.4,0.9,1.5,1.1,1.9c0.1,4.3,0.9,8.6,0.7,13l0.4,0.9c0.1,3,0.5,5.8,0.8,8.7c0.7,1.1,1.3,2.2,1.6,3.3
	c-2.8,5.7-2.9,12.1-4.9,18.1c1.3,3.3,2.5,6.7,3.5,10.2c2.7,3,1.8,7.5,2.8,11.2c0.8,16.4,1.4,32.9,2,49.3c-0.4,5.8,1.5,11.3,1.7,17
	c0.1,13.3,1.4,26.5,1.1,39.9h1.1c0,4.8,0,9.8,0,14.6c0.9,0,1.8-0.1,2.7-0.2c0.2-4.3,0-8.5-0.2-12.8c0.7-9.7-0.3-19.6,0.7-29.4
	c0.6-9.7-0.7-19.4,1-29.1c0.7-7.9-0.8-15.9,0.3-23.9c0.5,7.5-0.5,15.3,1.3,22.7c0.7,3.4,2.9,6.6,2.5,10.3
	c-0.2,20.2,0.2,40.6-0.2,60.8c-2.6,4.7-4.8,9.7-7.4,14.4c-0.9,1.8-2.1,3.6-1.9,5.7c0.1,24.3,0,48.5,0.1,72.8c2,3.6,1.9,7.9,3.6,11.7
	c1.3,5.2,3.1,10.2,3.8,15.5c1.7,3,2.5,6.6,2.6,10.1c0.1,48.5-0.4,96.8,0.8,145.1c1.1,4.7,5,8.5,5.4,13.4c1.2,9.8,4.2,19.3,3.8,29.2
	c-0.1,45,0.2,89.9,0.1,134.9c0,5.4,0.8,11.3-2,16.2c-0.8,5.4-1.2,10.9-2.9,16.2c1.8,4.2,2.2,8.8,4,13.1c1.2,4.9,3.3,9.7,3.6,14.9
	c0.2,6,0,12.2,1.7,17.9c0,11.7,1.2,23.4,1.3,35.1c1.3,4.1,0.9,8.5,1.1,12.9c0.9,10.2,0.8,20.4,2,30.5c1.2,3.8,0.3,7.9,1.1,11.7
	c2.7-0.5,2.3-4.4,2.5-6.5c-0.3-8.3,0.5-16.5,0.7-24.8c0.9-5.3-0.2-10.8,1.5-16c0-7,0.7-14.1,0.8-21.2c1.9-12.3,2-24.9,2.6-37.4
	c1.7,5.1,3.8,10,5.1,15.1c0.6,28.4-0.8,56.9,0.8,85.3c0.6,4.9-0.2,10.1,1.3,14.9c0.3,9.8,0.5,19.4,1.2,29.1c-0.1,4.5-0.2,9,1,13.4
	c0,6.1,0.7,12.3,0.8,18.5c0.8,8.5,1.3,17.2,0.9,25.7l1.3-2.9c-0.1,4.8,0,9.7,0,14.6c0.9-0.3,1.9-0.5,2.8-0.7c0-3.4-0.3-6.6,0.3-9.9
	c0.4-8.1,2-15.9,2.9-23.9c1.9-9.4,2-18.9,3-28.5c1.4-2.7,0.9-5.9,1.3-8.7c0.5-7.9,2.8-15.6,2.5-23.6c0-11.5,0-23.2,0-34.8
	c-0.1-4.9,2.6-9.1,4.7-13.3c0.6-1.9,1.2-3.8,1.9-5.7c1.9-4.4,5-8.5,4.6-13.6c0-41.9,0-84,0-126c-0.1-4.3-0.1-8.5,0.6-12.8h0.8
	c1.6-6.4,3.2-12.8,4.9-19.2c1.2-4.2,2.5-8.5,2.8-12.9c3.6-43.3,7.2-86.8,10.8-130.2c1.4-12.1,0.7-24.4,0.8-36.6l1,0.1
	c0.3-5.4,1.9-10.8,1.8-16.3c0-45.1,0.1-90,0-135c-0.4-5.7,1.8-11.1,2.5-16.7c2.3-5.9,2.1-12.4,4.2-18.5c-0.2,2.7-1,5.4-0.9,8.2
	c0,26.9,0,54,0,81c1.3,19.4-0.2,38.9,0.9,58.3c0.5-0.3,1.4-0.9,1.8-1.1c1.4-5,1.7-10.1,2.5-15.2c0.2-0.5,0.8-1.2,1-1.6
	c-0.1-2.2-0.1-4.5,0.1-6.7c0.9-7.4,0-15,0.6-22.5c0.6-5.2,0.2-10.5,0.3-15.7c-0.1-4.9,1.5-9.7,1.2-14.6c1-7.9,0.4-15.8,0.7-23.7
	c1.1-9.3-0.1-18.6,0.9-27.8c0.5-7.4-0.8-15.2,1.1-22.5c0.6-8.7-0.3-17.4,0.7-26.1c0.2-18.1,0-36.1,0.1-54.1c0.1-2.8-0.2-5.6-0.8-8.3
	c-1.6-4.5-1.7-9.2-2.7-13.8l-0.8,0.1c-0.4-7.2-3.7-14.2-2.1-21.5c1.4-4.4,0.6-8.9,1-13.3c1.1-10.8,0.4-21.7,2-32.4
	c0.4-10.7-0.9-21.6,2.6-31.8c0.7-4.9,3.7-9.1,4.6-14l0.6,0.7c0.5-2.1,1-4.1,1.7-6c2-3,2.4-6.7,4.2-9.7
	C2763.4,4.7,2761.1-1,2761.5-7.1z"/>
</svg>