<svg xmlns="http://www.w3.org/2000/svg" xmlns:xlink="http://www.w3.org/1999/xlink" x="0px" y="0px"
	 viewBox="2238.5 -139.3 524.3 1071.2" style="enable-background:new 2238.5 -139.3 524.3 1071.2;" xml:space="preserve">
<path d="M2383.8,15.6c-0.1-1.9,0.1-3.9-0.9-5.7c-1.3-9.7-1.4-19.4-1.7-29.2c-1.8-2.5-3-5.4-4.9-7.8c-2.1-3-2.2-6.6-2.3-10.2
	c-1.8-1.3-3.6-2.6-5.3-4c-1.2-6.5-1.8-13.2-3-19.8c-0.6,0.5-1.8,1.4-2.4,1.9c-0.2-5.9-0.2-11.9-1.5-17.6c-0.3-6.9-1.2-13.8-1.1-20.7
	c-0.6-0.1-1.8-0.4-2.4-0.6c-0.2,3.8,0.3,7.6-0.8,11.3c-0.8,6.4-1.2,12.9-1.9,19.3c-0.4,0.4-1.1,1.2-1.4,1.6
	c-0.4,0.9-0.9,1.8-1.4,2.7c0,3.6-0.4,7.2-1.1,10.7c-1-5.4-0.1-10.9-0.6-16.4c-1.3-8.5-3.5-16.9-4.4-25.5c-0.8-0.3-1.7-0.6-2.5-0.9
	c0.1,0.6,0.4,1.9,0.6,2.5c-0.6,1.4-1,2.9-1.3,4.4c-0.6,4.4-1.1,8.7-1.4,13.1c-0.4,0.6-1.4,1.8-1.8,2.4c0.2-7.3-0.7-14.6-0.6-21.9
	c-1.2-3.5-0.9-7.2-1-10.9c-0.9-11.2-0.7-22.4-1.5-33.6c-0.6,0-1.8,0-2.4,0c-1.1,7.8-1.7,15.7-2.4,23.4c-1.8,5.8-0.8,12.1-2.4,17.9
	c-1.2,4.1-1.1,8.5-1.5,12.7c-1.5,0.9-3,1.8-4.6,2.6c-0.3,0.7-0.7,1.5-1,2.2c-1.9,5.7-3.8,11.3-5.7,17c-0.3-1.6-0.6-3.2-0.9-4.8
	c-0.4,0.2-1.3,0.6-1.8,0.8c-3.4,6.7-10.6,10.2-18.1,12.5c-7.2,1.9-11.6,8.3-16.9,12.9c-4.4,3.7-8.1,8-12.6,11.6
	c-2.2,2.2-4.5,4.4-7,6.4c-1.4,3.8-3.7,7.2-5.2,10.9c-1.6,3.9-4.4,7.1-5.9,11c-2.4,1.7-4.7,3.3-6.9,5.1c0.4,3.9,1.2,7.9,0.1,11.8
	c-1.6,2.3-0.7,5.2-1,7.8c-0.6,5.3,0.1,10.9-2.5,15.8c4.1,2.3,1.5,6.8,1.7,10.4c1.1,4.6,0.8,9.4,0.8,14.1c1.6,2.7,3.5,5.2,4.7,8.1
	c0.3,0.3,1,0.8,1.3,1.1c0.8,7,0.7,14,1.2,21l1-0.4c-0.1,3.6-0.2,7.2,0.3,10.8c0.4,4.7-0.2,9.6,1.2,14.2c0.9,2.9,1,6,1.3,9
	c0.5-0.2,1.5-0.5,2-0.7c0.8-10-0.8-20.3,1.3-30.2c0.1,5.8-0.3,11.7,0,17.6c0.3,3.8,1,7.7,0.8,11.6c0.5,12.3,0,24.6,0.3,36.9
	c2.3,6.1,4.1,12.5,6.7,18.5c0.5,1.7,1.1,3.4,1.5,5.1c1.4,4,3.4,7.8,4.2,12c0.2,7.4,0.1,14.7,0.1,22.1c0.1,1.9-0.7,3.8-1.8,5.3
	c-3.3,6.7-1.2,14.5-1.2,21.6c-0.3,5.8,0.6,11.6,0.6,17.4c1,4.8-0.1,9.7,0.7,14.5c1.4,4.4,0.3,9,0.9,13.5c0.7,5.8-0.1,11.7,0.7,17.5
	c1.6,35.8,2.7,71.5,4.3,107.3c1.8,5.1,6.3,9.3,6.6,15c0.9,14.9,1.4,29.9,2.1,44.8c1.1,17.4,0.4,34.7,0.6,52.1
	c0.2,3.5-0.6,7.2,0.7,10.6c2.7,7.1,4.4,14.6,7,21.8c1.1,2.7,1.8,5.6,1.7,8.5c0,16.7-0.1,33.4,0,50.2c1.2,4.4,2,9,3.3,13.4
	c0.8,4.7,1.6,9.5,2.1,14.3c0.2,22-0.1,43.9,0.2,65.9c1.3,9.3,0.9,18.8,2.4,28.1c0.5,12,1.3,23.9,1.6,35.9c1.4,5.1,0.9,10.6,1.8,15.8
	c0.1,6.1,0.6,12.2,0.8,18.3c1.2,3.7,0.9,7.7,0.8,11.6c0.8-0.1,1.7-0.1,2.6-0.1c0.1-9.8-0.5-19.7,0.4-29.5c0-5.6-0.3-11.3,0.6-16.9
	c0-11.2,2-22.4,0.7-33.6c0.7,2.1,1.3,4.2,1.2,6.5c0,35.1,0,70.2,0,105.3c1.9,4,3.6,8.2,4.4,12.6c0.2,4.7,0.6,9.4,0.8,14.2
	c2.3,7.7,1,15.8,2.7,23.6c0.7,8.9,1.3,17.7,1.4,26.6c0.6,0.1,1.7,0.2,2.3,0.3c-0.2-5.1,0.5-10,1.5-15c0.2-7.9,1.2-15.8,1.2-23.8
	c1.4-2,0.8-4.5,1-6.8c0.4-6,0.7-12,1-18c2.4-10.7,1.6-21.8,2.8-32.6c1.2-14.5,0.5-28.9,0.7-43.4c0.1-6.5-0.7-13.2,1.5-19.4
	c1.8-4.3,1.7-9.2,3.3-13.6c0.2-6.4,0.2-12.8,0-19.1c-1.5-5.6-1.8-11.3-3.3-16.9c-0.3-5-0.2-10,0.3-15c0.3-7.1-0.2-14.3,0.3-21.5
	c0.2-4.7,2.1-9.2,3.6-13.6c2.4-5.5,3.9-11.4,6.1-16.9c0.3-42.7,0-85.4,0.1-128.1c0-5,2.3-9.6,2.7-14.6c1.6,0.7,3.2,1.3,4.8,1.9
	c0,9.9,0,19.9,0,29.8c1,14.3,0.3,28.7,0.5,43c0.2,13.9-0.6,27.7,0.7,41.5c1,10.1-0.3,20.3,0.7,30.4c3.2-7.9,1.7-16.7,2.7-25
	c2.8-14.8,1.5-30.1,3.9-44.9c0.1-8,1.3-16,1.6-24c1.6-9.9,0.9-20,1.9-30c0.3-3.1-0.6-6.4,0.9-9.2c0.4-14,1.4-27.9,2.4-41.8
	c2.7-50.3,5.5-100.7,8.2-151c0.2-27.3,0-54.7,0.1-82.1c0.6-6.3-2.4-12-3.1-18.1c-0.3-3.7-2.7-7-2.4-10.8c0.1-27.7,0-55.3,0.1-83
	c1-5.5,1.7-11.2,3.5-16.6c-0.2,2.5-1,5-1.4,7.5c0.1,2.4,0.9,4.7,0.8,7.1c0,24.6,0,49.2,0,73.9c0.7,0.3,1.4,0.6,2.1,0.9
	c2-14.9,2.7-29.9,3-44.9c1.2-4.3,1-8.7,1-13c1-11.1,1.3-22.1,1.7-33.2c1.5-6,0.3-12.1,1.2-18.1c0.1-8.3,0.9-16.7-1.2-24.8
	c1.2-5,1.5-10.2,2.9-15.1c1.4-5.5,0.8-11.3,0.9-16.9c-0.3-8.1,0.8-16.3-0.9-24.2c-0.3-2.6,1-5,1.6-7.4L2383.8,15.6z M2346.3,508.3
	c1.5-4.9,0.5-10.1,0.8-15.1c-0.2-3.4,0.7-7.1-0.6-10.4c1,1,2.1,2,3.1,2.9c0.1,8.1-0.3,16.2,0.2,24.3
	C2348.9,508.9,2347.6,508.6,2346.3,508.3z"/>

</svg>